<?xml version="1.0" encoding="UTF-8" standalone="no"?>
<!-- Generator: Adobe Illustrator 16.0.0, SVG Export Plug-In . SVG Version: 6.00 Build 0)  -->

<svg
   xmlns:dc="http://purl.org/dc/elements/1.1/"
   xmlns:cc="http://creativecommons.org/ns#"
   xmlns:rdf="http://www.w3.org/1999/02/22-rdf-syntax-ns#"
   xmlns:svg="http://www.w3.org/2000/svg"
   xmlns="http://www.w3.org/2000/svg"
   xmlns:sodipodi="http://sodipodi.sourceforge.net/DTD/sodipodi-0.dtd"
   xmlns:inkscape="http://www.inkscape.org/namespaces/inkscape"
   version="1.1"
   id="Layer_1"
   x="0px"
   y="0px"
   width="509.20993"
   height="333.09515"
   viewBox="22.249 7.938 509.20992 333.09514"
   enable-background="new 22.249 7.938 458.277 329.76"
   xml:space="preserve"
   sodipodi:docname="Nen_Types_Diagram.svg"
   inkscape:version="0.92.4 (5da689c313, 2019-01-14)"><metadata
   id="metadata1895"><rdf:RDF><cc:Work
       rdf:about=""><dc:format>image/svg+xml</dc:format><dc:type
         rdf:resource="http://purl.org/dc/dcmitype/StillImage" /><dc:title></dc:title></cc:Work></rdf:RDF></metadata><defs
   id="defs1893" /><sodipodi:namedview
   pagecolor="#ffffff"
   bordercolor="#666666"
   borderopacity="1"
   objecttolerance="10"
   gridtolerance="10"
   guidetolerance="10"
   inkscape:pageopacity="0"
   inkscape:pageshadow="2"
   inkscape:window-width="960"
   inkscape:window-height="1017"
   id="namedview1891"
   showgrid="false"
   inkscape:zoom="2.5200145"
   inkscape:cx="276.44872"
   inkscape:cy="163.26458"
   inkscape:window-x="952"
   inkscape:window-y="-8"
   inkscape:window-maximized="0"
   inkscape:current-layer="Layer_1"
   fit-margin-top="0"
   fit-margin-left="0"
   fit-margin-right="0"
   fit-margin-bottom="0" /><polygon
   stroke-miterlimit="10"
   points="252,279.766 165.6,229.883 165.6,130.117 252,80.235 338.399,130.117 338.399,229.883 "
   id="polygon1848"
   style="fill:none;stroke:#000000;stroke-width:6;stroke-miterlimit:10"
   transform="translate(11.236292,2.0808222)" /><circle
   stroke-miterlimit="10"
   cx="263.2363"
   cy="82.315826"
   r="22.32"
   id="circle1850"
   style="fill:#008000;stroke:#000000;stroke-width:6;stroke-miterlimit:10" /><g
   id="g1854"
   transform="translate(11.236292,2.0808222)"><path
     d="m 246.527,80.475 0.456,-0.024 1.177,0.12 c -0.024,0.192 -0.024,0.456 -0.048,0.672 -0.288,6.193 -0.576,8.497 -1.272,9.313 -0.672,0.768 -1.416,0.888 -2.832,0.888 -0.553,0 -1.2,-0.024 -1.849,-0.048 -0.048,-0.624 -0.288,-1.488 -0.647,-2.064 1.128,0.072 2.231,0.096 2.664,0.096 0.408,0 0.647,-0.048 0.864,-0.288 0.432,-0.456 0.695,-2.232 0.912,-6.673 h -3.049 l -0.12,0.96 -1.992,-0.312 c 0.313,-1.992 0.624,-5.161 0.769,-7.609 h 4.344 v -3.528 h -5.088 v -2.136 h 7.272 v 8.401 h -2.185 v -0.72 h -2.496 c -0.071,0.984 -0.168,1.992 -0.264,2.952 z m 12.698,7.464 c -0.408,-0.6 -0.84,-1.2 -1.271,-1.728 l 1.823,-0.864 c 1.345,1.584 2.785,3.72 3.337,5.208 l -1.943,0.96 c -0.168,-0.504 -0.457,-1.08 -0.793,-1.704 -3.96,0.288 -8.041,0.552 -10.705,0.696 -0.048,0.216 -0.216,0.336 -0.384,0.36 l -0.769,-2.52 c 1.585,-0.048 3.673,-0.12 5.977,-0.216 v -3.12 h -4.608 v -6.745 h 4.608 v -2.28 c -1.824,0.096 -3.479,0.168 -4.8,0.216 -0.024,0.216 -0.216,0.336 -0.384,0.36 l -0.721,-2.472 c 0.624,0 1.32,-0.024 2.088,-0.024 0.961,-1.512 2.017,-3.601 2.617,-5.113 l 2.688,0.792 c -0.07,0.168 -0.286,0.264 -0.6,0.264 -0.576,1.2 -1.464,2.712 -2.328,4.008 1.896,-0.048 3.961,-0.096 6.049,-0.168 -0.527,-0.648 -1.104,-1.296 -1.633,-1.872 l 1.873,-0.936 c 1.488,1.512 3.145,3.552 3.863,4.992 l -1.992,1.032 c -0.191,-0.408 -0.455,-0.888 -0.791,-1.392 l -3.217,0.168 c -0.023,0.192 -0.168,0.312 -0.527,0.384 v 2.04 h 4.801 v 6.745 h -4.801 v 3.048 z m -7.345,-4.848 h 2.616 v -2.88 h -2.616 z m 7.513,-2.88 h -2.711 v 2.88 h 2.711 z"
     id="path1852"
     inkscape:connector-curvature="0" /></g><circle
   stroke-miterlimit="10"
   cx="176.8363"
   cy="132.19983"
   r="22.32"
   id="circle1856"
   style="fill:#e6bc00;stroke:#000000;stroke-width:6;stroke-miterlimit:10" /><g
   id="g1860"
   transform="translate(11.236292,2.0808222)"><path
     d="m 162.828,127.838 1.176,0.048 c 0,0.192 0,0.48 -0.024,0.744 -0.144,8.065 -0.288,10.825 -0.912,11.689 -0.48,0.696 -1.056,0.984 -2.784,0.984 -0.432,0 -0.888,-0.024 -1.368,-0.048 -0.048,-0.6 -0.264,-1.512 -0.6,-2.064 0.912,0.072 1.704,0.096 2.088,0.096 0.36,0 0.552,-0.072 0.744,-0.36 0.384,-0.504 0.528,-2.736 0.672,-9 h -2.664 c -0.312,4.416 -1.08,8.617 -3.336,11.473 -0.36,-0.552 -1.08,-1.224 -1.656,-1.584 2.664,-3.36 2.904,-9.121 3,-15.001 h -2.712 v -2.112 h 4.152 v -3.816 l 2.832,0.168 c -0.024,0.216 -0.192,0.336 -0.576,0.408 v 3.24 h 4.32 v 2.112 h -5.809 c -0.024,1.008 -0.048,2.041 -0.096,3.048 h 3.072 z m 13.945,-2.377 h -1.776 c -0.576,3.745 -1.512,6.889 -2.977,9.481 1.296,1.944 2.928,3.48 5.017,4.44 -0.528,0.456 -1.248,1.344 -1.584,1.968 -1.968,-1.056 -3.528,-2.52 -4.801,-4.344 -1.44,1.8 -3.264,3.264 -5.616,4.368 -0.216,-0.528 -0.816,-1.464 -1.176,-1.896 2.4,-1.056 4.201,-2.568 5.568,-4.537 -0.912,-1.776 -1.608,-3.792 -2.16,-6 -0.432,0.816 -0.888,1.56 -1.368,2.208 -0.408,-0.432 -1.248,-1.128 -1.752,-1.464 1.824,-2.352 3.12,-6.601 3.792,-10.849 l 2.808,0.6 c -0.072,0.192 -0.264,0.312 -0.6,0.312 -0.216,1.2 -0.48,2.424 -0.816,3.601 h 7.44 z m -8.065,0 -0.096,0.24 c 0.48,2.52 1.176,4.873 2.136,6.937 0.936,-2.04 1.584,-4.417 2.016,-7.177 z"
     id="path1858"
     inkscape:connector-curvature="0" /></g><circle
   stroke-miterlimit="10"
   cx="349.63629"
   cy="132.19983"
   r="22.32"
   id="circle1862"
   style="fill:#ba00c4;stroke:#000000;stroke-width:6;stroke-miterlimit:10" /><g
   id="g1866"
   transform="translate(11.236292,2.0808222)"><path
     d="m 344.304,131.582 1.609,1.008 c -0.049,0.144 -0.193,0.24 -0.385,0.288 -1.152,1.896 -2.784,3.432 -4.752,4.632 2.495,0.912 5.495,1.488 8.881,1.704 -0.48,0.552 -1.058,1.512 -1.346,2.136 -3.937,-0.384 -7.249,-1.2 -9.961,-2.568 -2.976,1.32 -6.456,2.136 -10.104,2.616 -0.168,-0.552 -0.696,-1.56 -1.104,-2.04 3.266,-0.312 6.36,-0.912 9.001,-1.896 -1.079,-0.768 -2.04,-1.68 -2.881,-2.712 -1.15,0.768 -2.472,1.488 -4.008,2.136 -0.313,-0.552 -0.96,-1.344 -1.438,-1.68 3.791,-1.392 6.384,-3.408 7.729,-5.353 l 2.712,0.48 c -0.097,-0.6 -0.359,-1.344 -0.601,-1.896 0.601,0.024 1.201,0.048 1.655,0.048 0.984,0 1.08,0 1.08,-0.36 v -4.873 h -2.854 c 0,2.448 -0.336,5.761 -4.129,8.113 -0.359,-0.48 -1.152,-1.2 -1.656,-1.536 3.313,-1.944 3.648,-4.584 3.648,-6.577 h -7.705 v -2.112 h 9.457 v -2.28 l 2.903,0.168 c -0.022,0.216 -0.19,0.336 -0.575,0.408 v 1.704 h 9.576 v 2.112 H 342.6 v 4.944 c 0,2.041 -0.743,2.256 -4.319,2.256 v -0.072 c -0.072,0.192 -0.266,0.288 -0.576,0.288 -0.265,0.336 -0.553,0.672 -0.84,1.008 h 7.031 z m -10.705,-6.528 c -0.096,0.192 -0.286,0.264 -0.526,0.24 -0.84,1.464 -2.568,3.384 -4.272,4.561 -0.384,-0.432 -1.128,-1.032 -1.56,-1.344 1.606,-1.008 3.168,-2.688 3.862,-4.176 z m 1.344,8.448 -0.049,0.048 c 0.912,1.152 2.112,2.112 3.576,2.928 1.562,-0.816 2.881,-1.8 3.864,-2.976 z m 12.673,-3.48 c -0.744,-1.296 -2.496,-3.336 -3.984,-4.776 l 1.752,-1.032 c 1.514,1.368 3.313,3.313 4.152,4.657 z"
     id="path1864"
     inkscape:connector-curvature="0" /></g><circle
   stroke-miterlimit="10"
   cx="176.8363"
   cy="231.96283"
   r="22.32"
   id="circle1868"
   style="fill:#c0c0c0;stroke:#000000;stroke-width:6;stroke-miterlimit:10" /><g
   id="g1872"
   transform="translate(11.236292,2.0808222)"><path
     d="m 161.711,229.282 0.264,1.92 c -0.864,0.288 -1.728,0.575 -2.568,0.841 v 6.527 c 0,1.969 -0.624,2.593 -4.08,2.545 -0.048,-0.553 -0.336,-1.512 -0.624,-2.112 0.504,0 0.96,0.024 1.344,0.024 1.2,0 1.272,0 1.272,-0.433 v -5.881 c -0.792,0.24 -1.512,0.455 -2.112,0.647 -0.024,0.216 -0.192,0.359 -0.36,0.433 l -0.672,-2.545 c 0.888,-0.19 1.968,-0.479 3.145,-0.791 v -4.896 h -2.856 v -2.09 h 2.856 v -4.824 l 2.64,0.121 c -0.024,0.215 -0.168,0.336 -0.552,0.383 v 4.32 h 2.616 v 2.09 h -2.616 v 4.344 z m 14.882,5.257 h -5.017 c 1.344,1.607 3.457,3.096 5.449,3.863 -0.504,0.408 -1.176,1.225 -1.512,1.777 -1.992,-0.962 -4.056,-2.666 -5.497,-4.562 v 5.448 h -2.16 v -5.33 c -1.464,1.896 -3.456,3.554 -5.472,4.488 -0.336,-0.526 -1.008,-1.344 -1.488,-1.752 2.016,-0.791 4.104,-2.279 5.448,-3.936 h -4.848 v -1.945 h 6.36 v -1.68 h -5.616 v -5.473 h 6.192 v 5.281 l 1.272,0.096 v -5.377 h 6.361 v 5.473 h -5.497 c -0.048,0.168 -0.216,0.264 -0.552,0.336 v 1.344 h 6.577 z m -10.009,-5.257 v -2.208 h -2.568 v 2.208 z m 6.937,-10.009 v 5.184 h -8.881 v -5.184 z m -2.161,3.577 v -1.943 h -4.681 v 1.943 z m 0.12,4.224 v 2.208 h 2.712 v -2.208 z"
     id="path1870"
     inkscape:connector-curvature="0" /></g><circle
   stroke-miterlimit="10"
   cx="349.63629"
   cy="231.96182"
   r="22.32"
   id="circle1874"
   style="fill:#d9001e;stroke:#000000;stroke-width:6;stroke-miterlimit:10" /><g
   id="g1878"
   transform="translate(11.236292,2.0808222)"><path
     d="m 336.805,237.73 c -0.096,0.071 -0.265,0.119 -0.504,0.145 -1.705,1.08 -4.873,2.424 -7.346,3.216 -0.359,-0.505 -1.056,-1.272 -1.584,-1.753 2.496,-0.719 5.665,-2.063 7.297,-3.168 z m -9.217,-4.032 h 21.553 v 2.112 h -21.553 z m 3.456,-14.113 h 14.81 v 12.696 h -14.81 z m 2.231,1.752 v 1.944 h 10.226 v -1.944 z m 0,3.601 v 1.943 h 10.226 v -1.943 z m 0,3.599 v 1.969 h 10.226 v -1.969 z m 13.899,12.554 c -1.633,-0.96 -4.44,-2.257 -7.129,-3.239 l 1.703,-1.537 c 2.761,0.984 5.833,2.281 7.682,3.218 z"
     id="path1876"
     inkscape:connector-curvature="0" /></g><circle
   stroke-miterlimit="10"
   cx="263.2363"
   cy="281.8468"
   r="22.32"
   id="circle1880"
   style="fill:#006fb8;stroke:#000000;stroke-width:6;stroke-miterlimit:10" /><g
   id="g1884"
   transform="translate(11.236292,2.0808222)"><path
     d="m 260.354,278.373 c -0.022,0.191 -0.168,0.336 -0.552,0.384 v 1.849 h 3.169 v 2.111 h -3.169 v 5.762 c 0,2.279 -0.937,2.521 -5.017,2.521 -0.072,-0.647 -0.385,-1.536 -0.672,-2.16 0.768,0.022 1.512,0.048 2.088,0.048 1.248,0 1.344,0 1.344,-0.433 v -5.736 h -8.088 v -0.791 l -2.473,0.673 v 8.377 H 244.8 v -7.802 c -1.104,0.312 -2.112,0.552 -2.928,0.769 -0.024,0.19 -0.192,0.336 -0.36,0.384 l -0.816,-2.567 c 1.104,-0.217 2.544,-0.505 4.104,-0.841 v -5.399 h -1.752 c -0.288,1.367 -0.624,2.64 -1.032,3.601 -0.312,-0.313 -0.984,-0.89 -1.416,-1.177 0.696,-1.896 1.104,-5.137 1.344,-8.186 l 2.376,0.553 c -0.072,0.168 -0.216,0.287 -0.552,0.287 -0.096,0.889 -0.216,1.824 -0.336,2.736 h 1.368 v -4.824 l 2.736,0.168 c -0.024,0.217 -0.168,0.336 -0.552,0.385 v 4.271 h 2.785 v 2.186 h -2.785 v 4.92 l 2.856,-0.625 0.072,0.793 h 7.632 v -2.377 z m -3.241,-2.519 h 6.145 v 2.111 h -14.233 v -2.111 h 5.833 v -2.641 h -4.512 v -2.064 h 4.512 v -2.641 l 2.832,0.145 c -0.022,0.217 -0.19,0.336 -0.575,0.408 v 2.088 h 4.776 v 2.064 h -4.776 z m -4.032,12.384 c -0.456,-1.08 -1.56,-2.713 -2.592,-3.889 l 1.776,-0.912 c 1.008,1.127 2.184,2.688 2.665,3.768 z"
     id="path1882"
     inkscape:connector-curvature="0" /></g><g
   id="g1888"
   transform="translate(11.236292,2.0808222)"><path
     d="m 279.602,177.046 h -10.801 v 13.5 h 23.102 v 8.701 h -23.102 v 14 c 0,3.501 0.6,4.001 3.801,4.001 h 9.9 c 3,0 3.5,-2.001 3.9,-12.2 2.1,1.601 5.899,3.199 8.5,3.699 -0.899,13.201 -3.5,17.002 -11.5,17.002 H 271.001 C 261.4,225.749 259,222.948 259,213.247 v -14 h -16.201 c -1.9,10.899 -8.3,21.001 -27.602,27.701 -1.2,-2.199 -4.1,-5.802 -6.101,-7.5 15.801,-5.201 21.801,-12.501 23.902,-20.201 h -21.602 v -8.701 h 22.701 v -13.5 h -9.9 v -3.2 c -4.5,3.4 -9.301,6.3 -14.101,8.601 -1.3,-2.201 -3.9,-5.401 -5.8,-7.201 6.5,-2.7 12.901,-6.901 18.601,-12.101 -2.8,-2.9 -7.5,-6.9 -11.3,-9.8 l 6,-5 c 3.601,2.6 8,6.1 11.101,8.9 3.2,-3.7 6,-7.8 8.2,-12 h -23.401 v -8.301 h 28.702 l 1.5,-0.4 c 2.9,1.5 4.8,2.3 6.601,3.2 -0.2,0.5 -0.8,0.9 -1.3,1.2 -3.8,10.5 -10.201,19.701 -18.001,27.102 h 42.403 c -8.901,-8.8 -15.901,-20.001 -20.701,-32.502 l 8.4,-2.5 c 1.601,4.1 3.5,8.1 5.799,11.9 4,-3.4 8.302,-7.6 11.002,-10.8 l 8.199,6.1 c -0.3,0.4 -0.8,0.6 -1.5,0.6 -0.3,0 -0.6,0 -0.898,-0.1 -3.2,3.1 -8.301,7.201 -12.701,10.401 1.8,2.3 3.7,4.6 5.7,6.7 4.7,-3.6 9.899,-8.4 13.2,-12.101 l 8.102,5.9 c -0.4,0.6 -1.3,0.8 -2.4,0.6 -3.399,3.1 -8.801,7.4 -13.5,10.701 5.301,4.4 11.2,8.1 17.602,10.601 -2.2,1.9 -5.102,5.6 -6.602,8.2 -4.801,-2.2 -9.301,-5 -13.5,-8.3 v 3.6 z M 259,190.547 v -13.5 h -15.5 v 13.5 z"
     id="path1886"
     inkscape:connector-curvature="0" /></g><text
   xml:space="preserve"
   style="font-style:normal;font-variant:normal;font-weight:600;font-stretch:normal;font-size:18.66666603px;line-height:25px;font-family:Cabin;-inkscape-font-specification:'Cabin, Semi-Bold';font-variant-ligatures:normal;font-variant-caps:normal;font-variant-numeric:normal;font-feature-settings:normal;text-align:center;letter-spacing:0px;word-spacing:0px;writing-mode:lr-tb;text-anchor:middle;fill:#000000;fill-opacity:1;stroke:none;stroke-width:1px;stroke-linecap:butt;stroke-linejoin:miter;stroke-opacity:1"
   x="263.64267"
   y="22.685396"
   id="text1942"><tspan
     sodipodi:role="line"
     id="tspan1940"
     x="266.83276"
     y="22.685396"
     style="font-style:normal;font-variant:normal;font-weight:600;font-stretch:normal;font-size:18.66666603px;font-family:Cabin;-inkscape-font-specification:'Cabin, Semi-Bold';font-variant-ligatures:normal;font-variant-caps:normal;font-variant-numeric:normal;font-feature-settings:normal;text-align:center;writing-mode:lr-tb;text-anchor:middle">Intensificação </tspan></text>

<text
   xml:space="preserve"
   style="font-style:normal;font-variant:normal;font-weight:normal;font-stretch:normal;font-size:12px;line-height:13px;font-family:sans-serif;-inkscape-font-specification:'sans-serif, Normal';font-variant-ligatures:normal;font-variant-caps:normal;font-variant-numeric:normal;font-feature-settings:normal;text-align:center;letter-spacing:0px;word-spacing:0px;writing-mode:lr-tb;text-anchor:middle;fill:#000000;fill-opacity:1;stroke:none;stroke-width:1px;stroke-linecap:butt;stroke-linejoin:miter;stroke-opacity:1"
   x="263.45428"
   y="39.026875"
   id="text1942-7"><tspan
     sodipodi:role="line"
     id="tspan1968"
     x="263.45428"
     y="39.026875">Fortalecendo eles</tspan><tspan
     sodipodi:role="line"
     x="263.45428"
     y="52.026875"
     id="tspan1972">mesmo ou objetos.</tspan></text>

<text
   xml:space="preserve"
   style="font-style:normal;font-variant:normal;font-weight:600;font-stretch:normal;font-size:18.66666603px;line-height:25px;font-family:Cabin;-inkscape-font-specification:'Cabin, Semi-Bold';font-variant-ligatures:normal;font-variant-caps:normal;font-variant-numeric:normal;font-feature-settings:normal;text-align:center;letter-spacing:0px;word-spacing:0px;writing-mode:lr-tb;text-anchor:middle;fill:#000000;fill-opacity:1;stroke:none;stroke-width:1px;stroke-linecap:butt;stroke-linejoin:miter;stroke-opacity:1"
   x="95.225967"
   y="119.92629"
   id="text1942-4"><tspan
     sodipodi:role="line"
     id="tspan1940-1"
     x="95.225967"
     y="119.92629"
     style="font-style:normal;font-variant:normal;font-weight:600;font-stretch:normal;font-size:18.66666603px;font-family:Cabin;-inkscape-font-specification:'Cabin, Semi-Bold';font-variant-ligatures:normal;font-variant-caps:normal;font-variant-numeric:normal;font-feature-settings:normal;text-align:center;writing-mode:lr-tb;text-anchor:middle">Emissão</tspan></text>
<text
   xml:space="preserve"
   style="font-style:normal;font-variant:normal;font-weight:normal;font-stretch:normal;font-size:12px;line-height:13px;font-family:sans-serif;-inkscape-font-specification:'sans-serif, Normal';font-variant-ligatures:normal;font-variant-caps:normal;font-variant-numeric:normal;font-feature-settings:normal;text-align:center;letter-spacing:0px;word-spacing:0px;writing-mode:lr-tb;text-anchor:middle;fill:#000000;fill-opacity:1;stroke:none;stroke-width:1px;stroke-linecap:butt;stroke-linejoin:miter;stroke-opacity:1"
   x="95.037582"
   y="136.26776"
   id="text1942-7-0"><tspan
     sodipodi:role="line"
     x="95.037582"
     y="136.26776"
     id="tspan1972-2">Desprendendo</tspan><tspan
     sodipodi:role="line"
     x="95.037582"
     y="149.26776"
     id="tspan503">aura do corpo</tspan></text>
<text
   xml:space="preserve"
   style="font-style:normal;font-variant:normal;font-weight:600;font-stretch:normal;font-size:18.66666603px;line-height:25px;font-family:Cabin;-inkscape-font-specification:'Cabin, Semi-Bold';font-variant-ligatures:normal;font-variant-caps:normal;font-variant-numeric:normal;font-feature-settings:normal;text-align:center;letter-spacing:0px;word-spacing:0px;writing-mode:lr-tb;text-anchor:middle;fill:#000000;fill-opacity:1;stroke:none;stroke-width:1px;stroke-linecap:butt;stroke-linejoin:miter;stroke-opacity:1"
   x="86.178688"
   y="217.19606"
   id="text1942-4-3"><tspan
     sodipodi:role="line"
     id="tspan1940-1-2"
     x="86.178688"
     y="217.19606"
     style="font-style:normal;font-variant:normal;font-weight:600;font-stretch:normal;font-size:18.66666603px;font-family:Cabin;-inkscape-font-specification:'Cabin, Semi-Bold';font-variant-ligatures:normal;font-variant-caps:normal;font-variant-numeric:normal;font-feature-settings:normal;text-align:center;writing-mode:lr-tb;text-anchor:middle">Manipulação</tspan></text>
<text
   xml:space="preserve"
   style="font-style:normal;font-variant:normal;font-weight:normal;font-stretch:normal;font-size:12px;line-height:13px;font-family:sans-serif;-inkscape-font-specification:'sans-serif, Normal';font-variant-ligatures:normal;font-variant-caps:normal;font-variant-numeric:normal;font-feature-settings:normal;text-align:center;letter-spacing:0px;word-spacing:0px;writing-mode:lr-tb;text-anchor:middle;fill:#000000;fill-opacity:1;stroke:none;stroke-width:1px;stroke-linecap:butt;stroke-linejoin:miter;stroke-opacity:1"
   x="85.990303"
   y="233.53752"
   id="text1942-7-0-6"><tspan
     sodipodi:role="line"
     x="85.990303"
     y="233.53752"
     id="tspan503-3">Controlando</tspan><tspan
     sodipodi:role="line"
     x="85.990303"
     y="246.53752"
     id="tspan538">coisas animadas</tspan><tspan
     sodipodi:role="line"
     x="85.990303"
     y="259.53754"
     id="tspan544">e inanimadas</tspan></text>
<text
   xml:space="preserve"
   style="font-style:normal;font-variant:normal;font-weight:600;font-stretch:normal;font-size:18.66666603px;line-height:25px;font-family:Cabin;-inkscape-font-specification:'Cabin, Semi-Bold';font-variant-ligatures:normal;font-variant-caps:normal;font-variant-numeric:normal;font-feature-settings:normal;text-align:center;letter-spacing:0px;word-spacing:0px;writing-mode:lr-tb;text-anchor:middle;fill:#000000;fill-opacity:1;stroke:none;stroke-width:1px;stroke-linecap:butt;stroke-linejoin:miter;stroke-opacity:1"
   x="264.77426"
   y="324.51004"
   id="text1942-4-3-5"><tspan
     sodipodi:role="line"
     id="tspan1940-1-2-6"
     x="264.77426"
     y="324.51004"
     style="font-style:normal;font-variant:normal;font-weight:600;font-stretch:normal;font-size:18.66666603px;font-family:Cabin;-inkscape-font-specification:'Cabin, Semi-Bold';font-variant-ligatures:normal;font-variant-caps:normal;font-variant-numeric:normal;font-feature-settings:normal;text-align:center;writing-mode:lr-tb;text-anchor:middle">Especialização</tspan></text>
<text
   xml:space="preserve"
   style="font-style:normal;font-variant:normal;font-weight:normal;font-stretch:normal;font-size:12px;line-height:13px;font-family:sans-serif;-inkscape-font-specification:'sans-serif, Normal';font-variant-ligatures:normal;font-variant-caps:normal;font-variant-numeric:normal;font-feature-settings:normal;text-align:center;letter-spacing:0px;word-spacing:0px;writing-mode:lr-tb;text-anchor:middle;fill:#000000;fill-opacity:1;stroke:none;stroke-width:1px;stroke-linecap:butt;stroke-linejoin:miter;stroke-opacity:1"
   x="264.58588"
   y="340.8515"
   id="text1942-7-0-6-2"><tspan
     sodipodi:role="line"
     x="264.58588"
     y="340.8515"
     id="tspan544-2">Habilidade única</tspan></text>
<text
   xml:space="preserve"
   style="font-style:normal;font-variant:normal;font-weight:600;font-stretch:normal;font-size:18.66666603px;line-height:25px;font-family:Cabin;-inkscape-font-specification:'Cabin, Semi-Bold';font-variant-ligatures:normal;font-variant-caps:normal;font-variant-numeric:normal;font-feature-settings:normal;text-align:center;letter-spacing:0px;word-spacing:0px;writing-mode:lr-tb;text-anchor:middle;fill:#000000;fill-opacity:1;stroke:none;stroke-width:1px;stroke-linecap:butt;stroke-linejoin:miter;stroke-opacity:1"
   x="452.76361"
   y="116.37076"
   id="text1942-2"><tspan
     sodipodi:role="line"
     id="tspan1940-4"
     x="455.9537"
     y="116.37076"
     style="font-style:normal;font-variant:normal;font-weight:600;font-stretch:normal;font-size:18.66666603px;font-family:Cabin;-inkscape-font-specification:'Cabin, Semi-Bold';font-variant-ligatures:normal;font-variant-caps:normal;font-variant-numeric:normal;font-feature-settings:normal;text-align:center;writing-mode:lr-tb;text-anchor:middle">Transformação </tspan></text>
<text
   xml:space="preserve"
   style="font-style:normal;font-variant:normal;font-weight:normal;font-stretch:normal;font-size:12px;line-height:13px;font-family:sans-serif;-inkscape-font-specification:'sans-serif, Normal';font-variant-ligatures:normal;font-variant-caps:normal;font-variant-numeric:normal;font-feature-settings:normal;text-align:center;letter-spacing:0px;word-spacing:0px;writing-mode:lr-tb;text-anchor:middle;fill:#000000;fill-opacity:1;stroke:none;stroke-width:1px;stroke-linecap:butt;stroke-linejoin:miter;stroke-opacity:1"
   x="452.57523"
   y="132.71225"
   id="text1942-7-4"><tspan
     sodipodi:role="line"
     x="452.57523"
     y="132.71225"
     id="tspan1972-1">Mudando os atributos</tspan><tspan
     sodipodi:role="line"
     x="452.57523"
     y="145.71225"
     id="tspan610">da aura para combinar</tspan><tspan
     sodipodi:role="line"
     x="452.57523"
     y="158.71225"
     id="tspan612">com outra coisa</tspan></text>
<text
   xml:space="preserve"
   style="font-style:normal;font-variant:normal;font-weight:600;font-stretch:normal;font-size:18.66666603px;line-height:25px;font-family:Cabin;-inkscape-font-specification:'Cabin, Semi-Bold';font-variant-ligatures:normal;font-variant-caps:normal;font-variant-numeric:normal;font-feature-settings:normal;text-align:center;letter-spacing:0px;word-spacing:0px;writing-mode:lr-tb;text-anchor:middle;fill:#000000;fill-opacity:1;stroke:none;stroke-width:1px;stroke-linecap:butt;stroke-linejoin:miter;stroke-opacity:1"
   x="451.57312"
   y="224.70348"
   id="text1942-43"><tspan
     sodipodi:role="line"
     id="tspan1940-2"
     x="454.76321"
     y="224.70348"
     style="font-style:normal;font-variant:normal;font-weight:600;font-stretch:normal;font-size:18.66666603px;font-family:Cabin;-inkscape-font-specification:'Cabin, Semi-Bold';font-variant-ligatures:normal;font-variant-caps:normal;font-variant-numeric:normal;font-feature-settings:normal;text-align:center;writing-mode:lr-tb;text-anchor:middle">Intensificação </tspan></text>
<text
   xml:space="preserve"
   style="font-style:normal;font-variant:normal;font-weight:normal;font-stretch:normal;font-size:12px;line-height:13px;font-family:sans-serif;-inkscape-font-specification:'sans-serif, Normal';font-variant-ligatures:normal;font-variant-caps:normal;font-variant-numeric:normal;font-feature-settings:normal;text-align:center;letter-spacing:0px;word-spacing:0px;writing-mode:lr-tb;text-anchor:middle;fill:#000000;fill-opacity:1;stroke:none;stroke-width:1px;stroke-linecap:butt;stroke-linejoin:miter;stroke-opacity:1"
   x="451.38474"
   y="241.04494"
   id="text1942-7-9"><tspan
     sodipodi:role="line"
     x="451.38474"
     y="241.04494"
     id="tspan1972-9">Criando objetos</tspan><tspan
     sodipodi:role="line"
     x="451.38474"
     y="254.04494"
     id="tspan656">da aura</tspan></text>
</svg>